<?xml version="1.0" encoding="utf-8"?>
<!-- Generator: Adobe Illustrator 28.0.0, SVG Export Plug-In . SVG Version: 6.00 Build 0)  -->
<svg version="1.1" id="Calque_1" xmlns="http://www.w3.org/2000/svg" xmlns:xlink="http://www.w3.org/1999/xlink" x="0px" y="0px"
	 viewBox="0 0 48 47" style="enable-background:new 0 0 48 47;" xml:space="preserve">
<style type="text/css">
	.st0{clip-path:url(#SVGID_00000036967599420366225930000000667743305221184659_);}
	.st1{fill:#FE705A;}
	.st2{enable-background:new    ;}
	.st3{fill:#FFFFFF;}
</style>
<g>
	<g>
		<defs>
			<rect id="SVGID_1_" width="48" height="47"/>
		</defs>
		<clipPath id="SVGID_00000079486498557241267870000016789381982340651152_">
			<use xlink:href="#SVGID_1_"  style="overflow:visible;"/>
		</clipPath>
		<g style="clip-path:url(#SVGID_00000079486498557241267870000016789381982340651152_);">
			<path class="st1" d="M0,15.3c0-6.1,3.8-11.6,9.9-13C20-0.2,35.2-2.2,42.8,5.1c6.3,6.2,5.9,17.8,4.1,27.2
				C45.1,41.4,36.6,47,27.3,47H7.5C3.4,47,0,43.7,0,39.7V15.3z"/>
		</g>
	</g>
</g>
<g class="st2">
	<path class="st3" d="M37.7,30.7h1.7c1.1,0,1.6,0.4,1.6,1.1c0,0.5-0.2,0.9-0.6,1.2s-0.9,0.4-1.6,0.4h-2.3l-0.9,2.2
		c-0.9,2.4-1.9,4.1-3,5s-2.3,1.5-3.9,1.5c-1.5,0-2.7-0.5-3.6-1.4s-1.5-2.2-1.5-3.6c0-2.3,1.1-4,3.3-5.3c1.3-0.7,3.2-1.1,5.5-1.1
		l1.9,0l0.4-1C34.3,29.9,33.7,30,33,30c-1.2,0-2.2-0.4-2.9-1.2S29,26.8,29,25.5h-1.6h-0.3c-0.9,0-1.3-0.4-1.3-1.1
		c0-0.5,0.2-0.9,0.5-1.2s0.8-0.5,1.3-0.5H28h1.7c0.9-1.7,1.9-3,3.2-4s2.7-1.4,4.1-1.4c1.2,0,2.2,0.4,2.9,1.1s1.1,1.6,1.1,2.7
		c0,1.6-0.7,2.8-2.1,3.6c-0.9,0.6-2.3,0.8-4.2,0.8h-2.7v0.2c0,1,0.6,1.5,1.8,1.5c0.5,0,1.1-0.2,1.6-0.5l0.6-0.4
		c0.5-0.3,1-0.5,1.4-0.5c0.4,0,0.8,0.1,1.1,0.4s0.4,0.6,0.4,1c0,0.2-0.1,0.6-0.3,1.2L37.7,30.7z M33.3,33.5c-1.6,0-2.9,0.2-3.8,0.5
		c-0.8,0.3-1.5,0.7-1.9,1.2s-0.7,1.1-0.7,1.8c0,0.6,0.2,1.1,0.6,1.5s0.9,0.6,1.5,0.6c0.7,0,1.4-0.3,1.9-0.9s1.1-1.7,1.7-3.1
		L33.3,33.5z M33,22.7h2.3c1.9,0,2.9-0.5,2.9-1.6c0-0.3-0.1-0.6-0.4-0.8s-0.6-0.3-1-0.3c-0.6,0-1.2,0.2-1.9,0.7S33.5,21.8,33,22.7z"
		/>
</g>
<g class="st2">
	<path class="st3" d="M27.3,22.7h1.9c1.1,0,1.6,0.4,1.6,1.1c0,0.5-0.2,0.9-0.6,1.2s-0.9,0.4-1.6,0.4h-2.2c-0.8,0-1.4-0.2-1.9-0.5
		s-0.7-0.8-0.7-1.5c0-0.4,0.2-1,0.5-1.8l3-7.1l-2.3,2.4c-0.5,0.6-1.1,0.9-1.5,0.9c-0.6,0-1-0.4-1.2-1.3L22,15.3l-2.9,7.1
		c-1,2.4-1.7,4.1-2.2,4.9s-1.2,1.6-2,2.3c-1.2,0.9-2.6,1.4-4.1,1.4c-1.6,0-3-0.5-4-1.6s-1.5-2.4-1.5-4c0-2.2,0.8-4.1,2.4-5.8
		c0.9-0.9,1.9-1.6,3.2-2.1s2.6-0.8,3.8-0.8c0.6,0,1.2,0.1,1.5,0.4s0.6,0.6,0.6,1.1c0,0.5-0.2,0.9-0.6,1.2c-0.2,0.2-0.7,0.3-1.4,0.4
		c-1.6,0.1-2.8,0.5-3.8,1.1c-0.8,0.5-1.4,1.1-1.9,1.9s-0.7,1.6-0.7,2.4c0,0.9,0.2,1.6,0.7,2.1s1.1,0.8,1.9,0.8
		c0.9,0,1.8-0.4,2.5-1.2s1.5-2.2,2.3-4.3l4.7-11.4c0.4-1,1-1.5,1.6-1.5c0.4,0,0.8,0.1,1,0.4s0.5,0.8,0.7,1.5l0.7,2.7l3.5-3.5
		c0.8-0.8,1.5-1.1,2.2-1.1c0.5,0,0.9,0.1,1.2,0.4s0.5,0.6,0.5,1c0,0.3-0.1,0.5-0.2,0.8l-0.3,0.7L27.3,22.7z"/>
</g>
</svg>
