<?xml version="1.0" encoding="utf-8"?>
<!-- Generator: Adobe Illustrator 27.7.0, SVG Export Plug-In . SVG Version: 6.00 Build 0)  -->
<svg version="1.1" id="Calque_1" xmlns="http://www.w3.org/2000/svg" xmlns:xlink="http://www.w3.org/1999/xlink" x="0px" y="0px"
	 viewBox="0 0 80 80" style="enable-background:new 0 0 80 80;" xml:space="preserve">
<style type="text/css">
	.st0{fill:#FF644D;}
	.st1{fill:none;}
</style>
<g>
	<polygon class="st0" points="36.8,35.5 39.3,35.5 38.1,32.3 	"/>
	<path class="st0" d="M15.1,35.4v2H17c1,0,1.4-0.4,1.4-1.1c0.1-0.5-0.4-1-1.4-1H15.1z"/>
	<path class="st0" d="M27.5,31.4h-1.8v2.7l1.8-0.1c1.1,0,1.7-0.5,1.7-1.3C29.2,31.8,28.6,31.4,27.5,31.4z"/>
	<path class="st0" d="M18.1,32.2c0-0.6-0.5-1-1.4-1h-1.5v1.9h1.4C17.6,33.2,18.1,32.9,18.1,32.2z"/>
	<path class="st0" d="M4.3,4.4v71.3h71.5V4.4H4.3z M30.3,13.1h9.8v2.7h-3.3v8.4h-3.1v-8.4h-3.3V13.1z M20.3,13.3h8.9v2.6h-6v1.7h5.4
		v2.4h-5.2v1.8h6v2.6h-9.1V13.3z M21.1,31.4c0,1.1-0.7,2.1-1.7,2.5c1.3,0.2,2.3,1.4,2.3,2.7c0,1.9-1.5,3.1-4.2,3.1h-5.2V28.7h5.1
		c1.1-0.1,2.1,0.2,3,1C20.8,30.1,21.1,30.9,21.1,31.4z M10.9,22.8l2-1.9c0.4,0.6,1.1,1,1.8,1.1c0.7,0,1.3-0.5,1.3-1.5v-7.1h3.1v7.1
		c0.1,1.1-0.2,2.3-1.1,3.1c-0.8,0.7-1.9,1.2-3.1,1.2C13.3,24.7,11.9,24,10.9,22.8z M38.8,66.7H12v-4.5h26.8V66.7z M41,39.9l-0.8-2
		h-4.3l-0.8,2h-2.4h-0.8H29l-2.3-3.3h-1.1v3.3h-3.1V28.7h0.1h4.9c1.3-0.1,2.6,0.4,3.6,1.2c0.7,0.7,1.1,1.7,1.1,2.6
		c0,1.5-0.8,2.9-2.3,3.4l2.1,3.2l4.4-10.4h3l4.8,11.2H41z M47.9,39.9h-3.1V28.7h3.1V39.9z M59.1,39.9h-2.7l-4.2-6.1v6.1h-3.1V28.7
		h2.9l4.1,5.9v-5.9h3.1V39.9z M64.7,40c-1.9,0-3.7-0.6-5.1-1.8l1.7-2c1,0.8,2.3,1.3,3.6,1.3c0.8,0,1.3-0.2,1.3-0.8
		c0-0.5-0.4-0.7-1.9-1.1C61.8,35,60,34.4,60,32.2c0-2,1.7-3.6,4.3-3.6c1.7-0.1,3.3,0.5,4.6,1.4l-1.5,2.3c-1-0.7-2-1.1-3.1-1.1
		c-0.7,0-1.1,0.2-1.1,0.7s0.4,0.7,1.9,1.1c2.5,0.6,4.1,1.4,4.1,3.4C69.2,38.7,67.4,40,64.7,40z"/>
</g>
<path class="st1" d="M-22.6-22.4h125.1v124.8H-22.6V-22.4z"/>
</svg>
